<svg aria-hidden="true" style="position: absolute; width: 0; height: 0; overflow: hidden;" version="1.1" xmlns="http://www.w3.org/2000/svg" xmlns:xlink="http://www.w3.org/1999/xlink">
	<defs>
		<!-- Menu -->
		<symbol id="menu" viewBox="0 0 32 32">
			<path d="M0 24h32v4h-32zM16 4l16 16h-32z"></path>
		</symbol>
		<!-- Close -->
		<symbol id="close" viewBox="0 0 32 32">
			<path d="M31.708 25.708c-0-0-0-0-0-0l-9.708-9.708 9.708-9.708c0-0 0-0 0-0 0.105-0.105 0.18-0.227 0.229-0.357 0.133-0.356 0.057-0.771-0.229-1.057l-4.586-4.586c-0.286-0.286-0.702-0.361-1.057-0.229-0.13 0.048-0.252 0.124-0.357 0.228 0 0-0 0-0 0l-9.708 9.708-9.708-9.708c-0-0-0-0-0-0-0.105-0.104-0.227-0.18-0.357-0.228-0.356-0.133-0.771-0.057-1.057 0.229l-4.586 4.586c-0.286 0.286-0.361 0.702-0.229 1.057 0.049 0.13 0.124 0.252 0.229 0.357 0 0 0 0 0 0l9.708 9.708-9.708 9.708c-0 0-0 0-0 0-0.104 0.105-0.18 0.227-0.229 0.357-0.133 0.355-0.057 0.771 0.229 1.057l4.586 4.586c0.286 0.286 0.702 0.361 1.057 0.229 0.13-0.049 0.252-0.124 0.357-0.229 0-0 0-0 0-0l9.708-9.708 9.708 9.708c0 0 0 0 0 0 0.105 0.105 0.227 0.18 0.357 0.229 0.356 0.133 0.771 0.057 1.057-0.229l4.586-4.586c0.286-0.286 0.362-0.702 0.229-1.057-0.049-0.13-0.124-0.252-0.229-0.357z"></path>
		</symbol>
		<!-- Geo -->
		<symbol id="geo" viewBox="0 0 32 32">
			<path d="M26.501 7.964c-0.114-0.427-0.345-0.882-0.516-1.28-2.048-4.921-6.522-6.684-10.134-6.684-4.836 0-10.162 3.243-10.873 9.927v1.366c0 0.057 0.020 0.569 0.048 0.825 0.399 3.185 2.912 6.571 4.789 9.756 2.020 3.413 4.115 6.77 6.192 10.126 1.28-2.19 2.556-4.409 3.807-6.542 0.341-0.626 0.737-1.252 1.078-1.849 0.228-0.398 0.662-0.796 0.861-1.166 2.019-3.698 5.27-7.424 5.27-11.093v-1.507c0-0.398-0.493-1.792-0.521-1.877zM15.939 14.82c-1.422 0-2.978-0.711-3.746-2.674-0.114-0.313-0.105-0.939-0.105-0.996v-0.882c0-2.502 2.125-3.64 3.973-3.64 2.276 0 4.036 1.821 4.036 4.096s-1.883 4.096-4.158 4.096z"></path>
		</symbol>
		<!-- Tel -->
		<symbol id="tel" viewBox="0 0 34 32">
			<path d="M29.729 16.505c-0.552-0.545-1.241-0.545-1.789 0-0.418 0.415-0.836 0.829-1.248 1.251-0.112 0.116-0.207 0.141-0.344 0.063-0.271-0.148-0.559-0.267-0.819-0.429-1.213-0.763-2.228-1.743-3.128-2.847-0.446-0.548-0.843-1.135-1.121-1.796-0.056-0.134-0.046-0.221 0.063-0.33 0.418-0.404 0.826-0.819 1.237-1.234 0.573-0.576 0.573-1.251-0.004-1.831-0.327-0.33-0.654-0.654-0.981-0.984-0.337-0.337-0.671-0.678-1.012-1.012-0.552-0.538-1.241-0.538-1.789 0.004-0.422 0.415-0.826 0.84-1.255 1.248-0.397 0.376-0.598 0.836-0.64 1.374-0.067 0.875 0.148 1.701 0.45 2.506 0.619 1.666 1.56 3.146 2.703 4.502 1.543 1.835 3.385 3.286 5.539 4.334 0.97 0.471 1.975 0.833 3.068 0.893 0.752 0.042 1.406-0.148 1.93-0.735 0.358-0.401 0.763-0.766 1.142-1.149 0.562-0.569 0.566-1.258 0.007-1.821-0.668-0.671-1.339-1.339-2.010-2.007z"></path>
			<path d="M29.058 13.705l1.297-0.221c-0.204-1.191-0.766-2.27-1.62-3.128-0.903-0.903-2.046-1.473-3.304-1.648l-0.183 1.304c0.974 0.137 1.859 0.576 2.559 1.276 0.661 0.661 1.093 1.497 1.251 2.418z"></path>
			<path d="M31.086 8.068c-1.497-1.497-3.392-2.443-5.483-2.734l-0.183 1.304c1.806 0.253 3.444 1.072 4.738 2.362 1.227 1.227 2.031 2.777 2.323 4.481l1.297-0.221c-0.341-1.975-1.272-3.768-2.692-5.191z"></path>
		</symbol>
		<!-- List -->
		<symbol id="list" viewBox="0 0 32 32">
			<path fill="#5d6afb" style="fill: var(--color1, #5d6afb)" d="M16 32c-4.437 0-8.235-1.518-11.392-4.553-3.072-3.12-4.608-6.957-4.608-11.51s1.536-8.348 4.608-11.383c3.157-3.036 6.955-4.553 11.392-4.553s8.192 1.518 11.264 4.553c3.157 3.036 4.736 6.83 4.736 11.383s-1.579 8.39-4.736 11.51c-3.072 3.036-6.827 4.553-11.264 4.553z"></path>
		</symbol>
		<!-- Phone placeholder -->
		<symbol id="phone-plhold" viewBox="0 0 31 32">
			<path fill="#929aa2" style="fill: var(--color3, #929aa2)" d="M21.261 18.164c-0.623-0.615-1.4-0.615-2.019 0-0.472 0.468-0.944 0.936-1.408 1.412-0.127 0.131-0.234 0.159-0.389 0.071-0.305-0.167-0.631-0.301-0.924-0.484-1.368-0.861-2.515-1.967-3.53-3.213-0.504-0.619-0.952-1.281-1.265-2.027-0.063-0.151-0.052-0.25 0.071-0.373 0.472-0.456 0.932-0.924 1.396-1.392 0.647-0.65 0.647-1.412-0.004-2.066-0.369-0.373-0.738-0.738-1.107-1.111-0.381-0.381-0.758-0.765-1.142-1.142-0.623-0.607-1.4-0.607-2.019 0.004-0.476 0.468-0.932 0.948-1.416 1.408-0.448 0.424-0.674 0.944-0.722 1.551-0.075 0.988 0.167 1.92 0.508 2.828 0.698 1.88 1.761 3.55 3.050 5.081 1.741 2.071 3.82 3.709 6.251 4.891 1.095 0.531 2.229 0.94 3.463 1.007 0.849 0.048 1.587-0.167 2.177-0.829 0.405-0.452 0.861-0.865 1.289-1.297 0.635-0.643 0.639-1.42 0.008-2.055-0.754-0.758-1.511-1.511-2.269-2.265z"></path>
		</symbol>
		<!-- Checkbox-->
    	<symbol id="icon-check" viewBox="0 0 34 32">
    	  <path fill="#2196f3" style="fill: var(--color1, #2196f3)" d="M4.267 0h25.6c2.356 0 4.267 1.91 4.267 4.267v23.467c0 2.356-1.91 4.267-4.267 4.267h-25.6c-2.356 0-4.267-1.91-4.267-4.267v-23.467c0-2.356 1.91-4.267 4.267-4.267z"></path>
    	  <path fill="#fff" style="fill: var(--color2, #fff); stroke: var(--color2, #fff)" stroke="#fff" stroke-linejoin="miter" stroke-linecap="butt" stroke-miterlimit="4" stroke-width="0.4267" d="M8.442 16.537l-0.147-0.14-2.205 2.088 7.767 7.41 16.318-15.567-2.19-2.089-14.128 13.465-5.416-5.167z"></path>
   	</symbol>
   	 <symbol id="icon-uncheck" viewBox="0 0 34 32">
    	  <path d="M30.341 3.556v24.889h-26.548v-24.889h26.548zM30.341 0h-26.548c-2.086 0-3.793 1.6-3.793 3.556v24.889c0 1.956 1.707 3.556 3.793 3.556h26.548c2.086 0 3.793-1.6 3.793-3.556v-24.889c0-1.956-1.707-3.556-3.793-3.556z"></path>
   	 </symbol>
	</defs>
</svg>
